# xmcd CD database file
#
# Track frame offsets:
#	150
#	14410
#	33694
#	52707
#	64740
#	77964
#	90841
#	103031
#	112215
#	128205
#	143619
#
# Disc length: 2173 seconds
#
# Revision: 0
# Processed by: cddbd v1.5.1PL2 Copyright (c) Steve Scherf et al.
# Submitted via: CDex 1.51
#
DISCID=8d087b0b
DTITLE=Amos Lee - All My Friends
DYEAR=1900
DGENRE=Blues
TTITLE0=Keep It Loose, Keep It Tight
TTITLE1=Seen It All Before
TTITLE2=Arms of a Woman
TTITLE3=Give It Up
TTITLE4=Dreamin'
TTITLE5=Soul Suckers
TTITLE6=Colors
TTITLE7=Bottom of the Barrel
TTITLE8=Black River
TTITLE9=Love in the Lies
TTITLE10=All My Friends
EXTD=
EXTT0=
EXTT1=
EXTT2=
EXTT3=
EXTT4=
EXTT5=
EXTT6=
EXTT7=
EXTT8=
EXTT9=
EXTT10=
PLAYORDER=
